<!-- <svg width="1920" height="954" fill="none" xmlns="http://www.w3.org/2000/svg"><g clip-path="url(#prefix__clip0_58_109)" fill="rgba(6,53,86,1)"><path d="M1020.86 519.766c6.47-11.566 22.45-20.942 35.71-20.942h375.02c30.93 0 43.77 21.877 28.68 48.863L1204.02 1006H749l271.86-486.234zM1755.66 419.989c6.47-11.664 22.45-21.12 35.7-21.12h391.65c26.5 0 37.5 18.912 24.57 42.24L1923 954h-463.62l296.28-534.011z"/><path d="M1371.86 126.941c6.47-11.565 22.46-20.941 35.71-20.941h376.02c30.93 0 43.77 21.877 28.68 48.863L1371 954H914.98l456.88-827.059z"/></g><defs><clipPath id="prefix__clip0_58_109"><path fill="#fff" d="M0 0h1920v954H0z"/></clipPath></defs></svg> -->

<svg width="1920" height="954" fill="none" xmlns="http://www.w3.org/2000/svg">
  <g transform="scale(-1, -1) translate(-1920, -954)" clip-path="url(#prefix__clip0_58_109)" fill="rgba(6,53,86,1)">
    <path d="M1020.86 519.766c6.47-11.566 22.45-20.942 35.71-20.942h375.02c30.93 0 43.77 21.877 28.68 48.863L1204.02 1006H749l271.86-486.234zM1755.66 419.989c6.47-11.664 22.45-21.12 35.7-21.12h391.65c26.5 0 37.5 18.912 24.57 42.24L1923 954h-463.62l296.28-534.011z"/>
    <path d="M1371.86 126.941c6.47-11.565 22.46-20.941 35.71-20.941h376.02c30.93 0 43.77 21.877 28.68 48.863L1371 954H914.98l456.88-827.059z"/>
  </g>
  <defs>
    <clipPath id="prefix__clip0_58_109">
      <path fill="#fff" d="M0 0h1920v954H0z"/>
    </clipPath>
  </defs>
</svg>
